<svg viewBox="0 0 1024 1024" version="1.1" xmlns="http://www.w3.org/2000/svg"><path d="M832 96c53.02 0 96 42.98 96 96v640c0 53.02-42.98 96-96 96H192c-53.02 0-96-42.98-96-96V192c0-53.02 42.98-96 96-96zM554.667 757.333l0.529-0.004c17.429-0.283 31.47-14.5 31.47-31.996 0-17.673-14.326-32-32-32H544V384l-0.004-0.53a31.923 31.923 0 0 0-1.817-10.137h108.487v32l0.005 0.53c0.283 17.429 14.5 31.47 31.996 31.47 17.673 0 32-14.327 32-32v-64l-0.005-0.529c-0.282-17.429-14.499-31.47-31.995-31.47H341.333l-0.529 0.004c-17.429 0.282-31.47 14.499-31.47 31.995v64l0.004 0.53c0.282 17.429 14.499 31.47 31.995 31.47l0.53-0.004c17.429-0.283 31.47-14.5 31.47-31.996v-32h108.488A31.948 31.948 0 0 0 480 384v309.333h-10.667l-0.529 0.005c-17.429 0.282-31.47 14.499-31.47 31.995 0 17.673 14.326 32 32 32h85.333z" p-id="2490"></path></svg>