<?xml version="1.0" standalone="no"?><!DOCTYPE svg PUBLIC "-//W3C//DTD SVG 1.1//EN" "http://www.w3.org/Graphics/SVG/1.1/DTD/svg11.dtd"><svg viewBox="0 0 1024 1024" version="1.1" xmlns="http://www.w3.org/2000/svg" p-id="2680" xmlns:xlink="http://www.w3.org/1999/xlink" width="200" height="200"><path d="M214.773 661.358l311.01-153.981 28.396 57.355-311.01 153.98z" fill="#B4C1F9" p-id="2681"></path><path d="M562.63 558.63l-45.26-45.26a30.9 30.9 0 0 0-5 6.52c6.15-11.15 94.82-190.91 152.92-309l57.42 28.24c-0.38 0.78-38.44 78.16-76.26 154.79-22.23 45-40 81-52.89 106.89-26.56 53.43-26.56 53.43-30.93 57.82z" fill="#B4C1F9" p-id="2682"></path><path d="M517.412 558.684l45.168-45.342 258.993 258-45.168 45.342z" fill="#B4C1F9" p-id="2683"></path><path d="M540.5 536.5m-180.5 0a180.5 180.5 0 1 0 361 0 180.5 180.5 0 1 0-361 0Z" fill="#7287FD" p-id="2684"></path><path d="M693.5 225.5m-124.5 0a124.5 124.5 0 1 0 249 0 124.5 124.5 0 1 0-249 0Z" fill="#68D2C8" p-id="2685"></path><path d="M799.5 795.5m-124.5 0a124.5 124.5 0 1 0 249 0 124.5 124.5 0 1 0-249 0Z" fill="#7287FD" p-id="2686"></path><path d="M227.5 691.5m-124.5 0a124.5 124.5 0 1 0 249 0 124.5 124.5 0 1 0-249 0Z" fill="#FDC005" p-id="2687"></path></svg>